<mxfile host="app.diagrams.net" modified="2024-06-18T21:59:58.767Z" agent="Mozilla/5.0 (Windows NT 10.0; Win64; x64) AppleWebKit/537.36 (KHTML, like Gecko) Chrome/126.0.0.0 Safari/537.36 Edg/126.0.0.0" version="24.5.5" etag="94MNUSoUvGESZ1pYxbYO" type="github">
  <diagram name="Page-1" id="zPl2K-OLZmLuR-2Ss4bs">
    <mxGraphModel>
      <root>
        <mxCell id="0" />
        <mxCell id="1" parent="0" />
        <mxCell id="2" value="Networking" style="whiteSpace=wrap;strokeWidth=2;verticalAlign=top;" vertex="1" parent="1">
          <mxGeometry x="631" width="648" height="774" as="geometry" />
        </mxCell>
        <mxCell id="3" value="Internal Network" style="whiteSpace=wrap;strokeWidth=2;verticalAlign=top;" vertex="1" parent="1">
          <mxGeometry x="656" y="104" width="212" height="650" as="geometry" />
        </mxCell>
        <mxCell id="4" value="External Network" style="whiteSpace=wrap;strokeWidth=2;verticalAlign=top;" vertex="1" parent="1">
          <mxGeometry x="943" y="20" width="311" height="694" as="geometry" />
        </mxCell>
        <mxCell id="5" value="External Firewall" style="whiteSpace=wrap;strokeWidth=2;" vertex="1" parent="1">
          <mxGeometry x="968" y="55" width="137" height="34" as="geometry" />
        </mxCell>
        <mxCell id="6" value="Router 1" style="whiteSpace=wrap;strokeWidth=2;" vertex="1" parent="1">
          <mxGeometry x="999" y="645" width="76" height="34" as="geometry" />
        </mxCell>
        <mxCell id="7" value="Router 2" style="whiteSpace=wrap;strokeWidth=2;" vertex="1" parent="1">
          <mxGeometry x="999" y="358" width="76" height="34" as="geometry" />
        </mxCell>
        <mxCell id="8" value="Internet" style="whiteSpace=wrap;strokeWidth=2;" vertex="1" parent="1">
          <mxGeometry x="1155" y="603" width="74" height="34" as="geometry" />
        </mxCell>
        <mxCell id="9" value="Switch 1" style="whiteSpace=wrap;strokeWidth=2;" vertex="1" parent="1">
          <mxGeometry x="724" y="645" width="75" height="34" as="geometry" />
        </mxCell>
        <mxCell id="10" value="Switch 2" style="whiteSpace=wrap;strokeWidth=2;" vertex="1" parent="1">
          <mxGeometry x="724" y="358" width="75" height="34" as="geometry" />
        </mxCell>
        <mxCell id="11" value="Storage" style="whiteSpace=wrap;strokeWidth=2;verticalAlign=top;" vertex="1" parent="1">
          <mxGeometry x="376" y="92" width="205" height="187" as="geometry" />
        </mxCell>
        <mxCell id="12" value="Storage 1" style="whiteSpace=wrap;strokeWidth=2;" vertex="1" parent="1">
          <mxGeometry x="437" y="211" width="82" height="34" as="geometry" />
        </mxCell>
        <mxCell id="13" value="Storage 2" style="whiteSpace=wrap;strokeWidth=2;" vertex="1" parent="1">
          <mxGeometry x="437" y="127" width="82" height="34" as="geometry" />
        </mxCell>
        <mxCell id="14" value="Firewall" style="whiteSpace=wrap;strokeWidth=2;verticalAlign=top;" vertex="1" parent="1">
          <mxGeometry x="376" y="319" width="205" height="187" as="geometry" />
        </mxCell>
        <mxCell id="15" value="Firewall 1" style="whiteSpace=wrap;strokeWidth=2;" vertex="1" parent="1">
          <mxGeometry x="436" y="438" width="86" height="34" as="geometry" />
        </mxCell>
        <mxCell id="16" value="Firewall 2" style="whiteSpace=wrap;strokeWidth=2;" vertex="1" parent="1">
          <mxGeometry x="436" y="354" width="86" height="34" as="geometry" />
        </mxCell>
        <mxCell id="17" value="Monitoring" style="whiteSpace=wrap;strokeWidth=2;verticalAlign=top;" vertex="1" parent="1">
          <mxGeometry x="376" y="794" width="517" height="197" as="geometry" />
        </mxCell>
        <mxCell id="18" value="Monitoring Server 1" style="whiteSpace=wrap;strokeWidth=2;" vertex="1" parent="1">
          <mxGeometry x="401" y="913" width="155" height="34" as="geometry" />
        </mxCell>
        <mxCell id="19" value="Monitoring Server 2" style="whiteSpace=wrap;strokeWidth=2;" vertex="1" parent="1">
          <mxGeometry x="401" y="829" width="155" height="34" as="geometry" />
        </mxCell>
        <mxCell id="20" value="Monitoring Database" style="whiteSpace=wrap;strokeWidth=2;" vertex="1" parent="1">
          <mxGeometry x="681" y="923" width="162" height="34" as="geometry" />
        </mxCell>
        <mxCell id="21" value="Web Servers" style="whiteSpace=wrap;strokeWidth=2;verticalAlign=top;" vertex="1" parent="1">
          <mxGeometry x="376" y="527" width="205" height="187" as="geometry" />
        </mxCell>
        <mxCell id="22" value="Database 1" style="whiteSpace=wrap;strokeWidth=2;" vertex="1" parent="1">
          <mxGeometry x="432" y="645" width="94" height="34" as="geometry" />
        </mxCell>
        <mxCell id="23" value="Database 2" style="whiteSpace=wrap;strokeWidth=2;" vertex="1" parent="1">
          <mxGeometry x="432" y="562" width="94" height="34" as="geometry" />
        </mxCell>
        <mxCell id="24" value="Load Balancer" style="whiteSpace=wrap;strokeWidth=2;verticalAlign=top;" vertex="1" parent="1">
          <mxGeometry y="26" width="326" height="929" as="geometry" />
        </mxCell>
        <mxCell id="25" value="Web Server 1" style="whiteSpace=wrap;strokeWidth=2;" vertex="1" parent="1">
          <mxGeometry x="191" y="635" width="110" height="34" as="geometry" />
        </mxCell>
        <mxCell id="26" value="Load Balancer" style="whiteSpace=wrap;strokeWidth=2;" vertex="1" parent="1">
          <mxGeometry x="25" y="344" width="116" height="34" as="geometry" />
        </mxCell>
        <mxCell id="27" value="Web Server 2" style="whiteSpace=wrap;strokeWidth=2;" vertex="1" parent="1">
          <mxGeometry x="191" y="344" width="110" height="34" as="geometry" />
        </mxCell>
        <mxCell id="28" value="" style="curved=1;startArrow=none;endArrow=block;exitX=0.54;exitY=1;entryX=0;entryY=0.5;" edge="1" parent="1" source="26" target="25">
          <mxGeometry relative="1" as="geometry">
            <Array as="points">
              <mxPoint x="166" y="652" />
            </Array>
          </mxGeometry>
        </mxCell>
        <mxCell id="29" value="" style="curved=1;startArrow=none;endArrow=block;exitX=1;exitY=0.5;entryX=0;entryY=0.5;" edge="1" parent="1" source="26" target="27">
          <mxGeometry relative="1" as="geometry">
            <Array as="points" />
          </mxGeometry>
        </mxCell>
        <mxCell id="30" value="" style="curved=1;startArrow=none;endArrow=block;exitX=1;exitY=0.7;entryX=0;entryY=0.5;" edge="1" parent="1" source="25" target="22">
          <mxGeometry relative="1" as="geometry">
            <Array as="points">
              <mxPoint x="326" y="662" />
            </Array>
          </mxGeometry>
        </mxCell>
        <mxCell id="31" value="" style="curved=1;startArrow=none;endArrow=block;exitX=0.56;exitY=1;entryX=0;entryY=0.48;" edge="1" parent="1" source="27" target="23">
          <mxGeometry relative="1" as="geometry">
            <Array as="points">
              <mxPoint x="326" y="578" />
            </Array>
          </mxGeometry>
        </mxCell>
        <mxCell id="32" value="" style="curved=1;startArrow=none;endArrow=block;exitX=0.55;exitY=1;entryX=0;entryY=0.48;" edge="1" parent="1" source="25" target="18">
          <mxGeometry relative="1" as="geometry">
            <Array as="points">
              <mxPoint x="326" y="929" />
            </Array>
          </mxGeometry>
        </mxCell>
        <mxCell id="33" value="" style="curved=1;startArrow=none;endArrow=block;exitX=0.53;exitY=1;entryX=0;entryY=0.49;" edge="1" parent="1" source="27" target="19">
          <mxGeometry relative="1" as="geometry">
            <Array as="points">
              <mxPoint x="326" y="846" />
            </Array>
          </mxGeometry>
        </mxCell>
        <mxCell id="34" value="" style="curved=1;startArrow=none;endArrow=block;exitX=1;exitY=0.7;entryX=0;entryY=0.48;" edge="1" parent="1" source="18" target="20">
          <mxGeometry relative="1" as="geometry">
            <Array as="points">
              <mxPoint x="581" y="939" />
            </Array>
          </mxGeometry>
        </mxCell>
        <mxCell id="35" value="" style="curved=1;startArrow=none;endArrow=block;exitX=0.56;exitY=0;entryX=0;entryY=0.49;" edge="1" parent="1" source="25" target="15">
          <mxGeometry relative="1" as="geometry">
            <Array as="points">
              <mxPoint x="326" y="455" />
            </Array>
          </mxGeometry>
        </mxCell>
        <mxCell id="36" value="" style="curved=1;startArrow=none;endArrow=block;exitX=1;exitY=0.7;entryX=0;entryY=0.5;" edge="1" parent="1" source="27" target="16">
          <mxGeometry relative="1" as="geometry">
            <Array as="points">
              <mxPoint x="326" y="371" />
            </Array>
          </mxGeometry>
        </mxCell>
        <mxCell id="37" value="" style="curved=1;startArrow=none;endArrow=block;exitX=0.53;exitY=0;entryX=0.01;entryY=0.48;" edge="1" parent="1" source="25" target="12">
          <mxGeometry relative="1" as="geometry">
            <Array as="points">
              <mxPoint x="326" y="227" />
            </Array>
          </mxGeometry>
        </mxCell>
        <mxCell id="38" value="" style="curved=1;startArrow=none;endArrow=block;exitX=0.56;exitY=0;entryX=0.01;entryY=0.49;" edge="1" parent="1" source="27" target="13">
          <mxGeometry relative="1" as="geometry">
            <Array as="points">
              <mxPoint x="326" y="144" />
            </Array>
          </mxGeometry>
        </mxCell>
        <mxCell id="39" value="" style="curved=1;startArrow=none;endArrow=block;exitX=0.65;exitY=1;entryX=0.17;entryY=1;" edge="1" parent="1" source="25" target="9">
          <mxGeometry relative="1" as="geometry">
            <Array as="points">
              <mxPoint x="326" y="734" />
              <mxPoint x="656" y="734" />
            </Array>
          </mxGeometry>
        </mxCell>
        <mxCell id="40" value="" style="curved=1;startArrow=none;endArrow=block;exitX=0.7;exitY=0;entryX=0;entryY=0.69;" edge="1" parent="1" source="27" target="10">
          <mxGeometry relative="1" as="geometry">
            <Array as="points">
              <mxPoint x="326" y="299" />
              <mxPoint x="581" y="299" />
              <mxPoint x="606" y="393" />
              <mxPoint x="656" y="393" />
            </Array>
          </mxGeometry>
        </mxCell>
        <mxCell id="41" value="" style="curved=1;startArrow=none;endArrow=block;exitX=0.99;exitY=0.5;entryX=0;entryY=0.5;" edge="1" parent="1" source="22" target="9">
          <mxGeometry relative="1" as="geometry">
            <Array as="points" />
          </mxGeometry>
        </mxCell>
        <mxCell id="42" value="" style="curved=1;startArrow=none;endArrow=block;exitX=0.99;exitY=0.48;entryX=0;entryY=0.48;" edge="1" parent="1" source="23" target="10">
          <mxGeometry relative="1" as="geometry">
            <Array as="points">
              <mxPoint x="581" y="578" />
              <mxPoint x="606" y="373" />
              <mxPoint x="656" y="373" />
            </Array>
          </mxGeometry>
        </mxCell>
        <mxCell id="43" value="" style="curved=1;startArrow=none;endArrow=block;exitX=0.85;exitY=-0.01;entryX=0.4;entryY=1;" edge="1" parent="1" source="18" target="9">
          <mxGeometry relative="1" as="geometry">
            <Array as="points">
              <mxPoint x="581" y="898" />
              <mxPoint x="656" y="898" />
            </Array>
          </mxGeometry>
        </mxCell>
        <mxCell id="44" value="" style="curved=1;startArrow=none;endArrow=block;exitX=1;exitY=0.49;entryX=0.45;entryY=1;" edge="1" parent="1" source="19" target="10">
          <mxGeometry relative="1" as="geometry">
            <Array as="points">
              <mxPoint x="656" y="846" />
            </Array>
          </mxGeometry>
        </mxCell>
        <mxCell id="45" value="" style="curved=1;startArrow=none;endArrow=block;exitX=0.99;exitY=0.49;entryX=0.32;entryY=0;" edge="1" parent="1" source="15" target="9">
          <mxGeometry relative="1" as="geometry">
            <Array as="points">
              <mxPoint x="581" y="455" />
              <mxPoint x="606" y="537" />
              <mxPoint x="656" y="537" />
            </Array>
          </mxGeometry>
        </mxCell>
        <mxCell id="46" value="" style="curved=1;startArrow=none;endArrow=block;exitX=0.99;exitY=0.5;entryX=0.3;entryY=0.01;" edge="1" parent="1" source="16" target="10">
          <mxGeometry relative="1" as="geometry">
            <Array as="points">
              <mxPoint x="581" y="371" />
              <mxPoint x="606" y="259" />
              <mxPoint x="656" y="259" />
            </Array>
          </mxGeometry>
        </mxCell>
        <mxCell id="47" value="" style="curved=1;startArrow=none;endArrow=block;exitX=1.01;exitY=0.48;entryX=0.41;entryY=0;" edge="1" parent="1" source="12" target="9">
          <mxGeometry relative="1" as="geometry">
            <Array as="points">
              <mxPoint x="581" y="227" />
              <mxPoint x="606" y="413" />
              <mxPoint x="656" y="413" />
            </Array>
          </mxGeometry>
        </mxCell>
        <mxCell id="48" value="" style="curved=1;startArrow=none;endArrow=block;exitX=1.01;exitY=0.49;entryX=0.4;entryY=0.01;" edge="1" parent="1" source="13" target="10">
          <mxGeometry relative="1" as="geometry">
            <Array as="points">
              <mxPoint x="656" y="144" />
            </Array>
          </mxGeometry>
        </mxCell>
        <mxCell id="49" value="" style="curved=1;startArrow=none;endArrow=block;exitX=0.54;exitY=0;entryX=0;entryY=0.5;" edge="1" parent="1" source="26" target="5">
          <mxGeometry relative="1" as="geometry">
            <Array as="points">
              <mxPoint x="166" y="72" />
            </Array>
          </mxGeometry>
        </mxCell>
        <mxCell id="50" value="" style="curved=1;startArrow=none;endArrow=block;exitX=1.01;exitY=0.5;entryX=-0.01;entryY=0.5;" edge="1" parent="1" source="9" target="6">
          <mxGeometry relative="1" as="geometry">
            <Array as="points" />
          </mxGeometry>
        </mxCell>
        <mxCell id="51" value="" style="curved=1;startArrow=none;endArrow=block;exitX=1.01;exitY=0.5;entryX=-0.01;entryY=0.5;" edge="1" parent="1" source="10" target="7">
          <mxGeometry relative="1" as="geometry">
            <Array as="points" />
          </mxGeometry>
        </mxCell>
        <mxCell id="52" value="" style="curved=1;startArrow=none;endArrow=block;exitX=0.99;exitY=0.5;entryX=0.16;entryY=1;" edge="1" parent="1" source="6" target="8">
          <mxGeometry relative="1" as="geometry">
            <Array as="points">
              <mxPoint x="1130" y="662" />
            </Array>
          </mxGeometry>
        </mxCell>
        <mxCell id="53" value="" style="curved=1;startArrow=none;endArrow=block;exitX=0.99;exitY=0.5;entryX=0.44;entryY=0.01;" edge="1" parent="1" source="7" target="8">
          <mxGeometry relative="1" as="geometry">
            <Array as="points">
              <mxPoint x="1130" y="375" />
            </Array>
          </mxGeometry>
        </mxCell>
      </root>
    </mxGraphModel>
  </diagram>
</mxfile>
